<?xml version="1.0" encoding="UTF-8"?>
<svg xmlns="http://www.w3.org/2000/svg" xmlns:xlink="http://www.w3.org/1999/xlink" width="32px" height="32px" viewBox="0 0 32 32" version="1.1">
<g id="surface1">
<path style=" stroke:none;fill-rule:nonzero;fill:rgb(0%,23.921569%,34.509804%);fill-opacity:1;" d="M 15.351562 0 L 16.648438 0 L 18 0.109375 L 19.296875 0.324219 L 20.59375 0.648438 L 22 1.136719 L 23.296875 1.730469 L 24.269531 2.269531 L 25.242188 2.917969 L 25.890625 3.40625 L 26.59375 4 L 27.136719 4.488281 L 27.890625 5.242188 L 28.378906 5.835938 L 28.972656 6.59375 L 29.621094 7.566406 L 30.269531 8.703125 L 30.757812 9.730469 L 31.242188 11.082031 L 31.566406 12.214844 L 31.835938 13.621094 L 31.945312 14.488281 L 32 15.351562 L 32 16.648438 L 31.890625 18 L 31.675781 19.296875 L 31.351562 20.59375 L 30.863281 22 L 30.269531 23.296875 L 29.730469 24.269531 L 29.082031 25.242188 L 28.59375 25.890625 L 28 26.59375 L 27.511719 27.136719 L 26.757812 27.890625 L 26.164062 28.378906 L 25.40625 28.972656 L 24.433594 29.621094 L 23.296875 30.269531 L 22.269531 30.757812 L 20.917969 31.242188 L 19.785156 31.566406 L 18.378906 31.835938 L 17.511719 31.945312 L 16.648438 32 L 15.351562 32 L 14 31.890625 L 12.703125 31.675781 L 11.40625 31.351562 L 10 30.863281 L 8.703125 30.269531 L 7.730469 29.730469 L 6.757812 29.082031 L 6.109375 28.59375 L 5.40625 28 L 4.863281 27.511719 L 4.109375 26.757812 L 3.621094 26.164062 L 3.027344 25.40625 L 2.378906 24.433594 L 1.730469 23.296875 L 1.242188 22.269531 L 0.757812 20.917969 L 0.433594 19.785156 L 0.164062 18.378906 L 0.0546875 17.511719 L 0 16.648438 L 0 15.351562 L 0.109375 14 L 0.324219 12.703125 L 0.648438 11.40625 L 1.136719 10 L 1.730469 8.703125 L 2.269531 7.730469 L 2.917969 6.757812 L 3.40625 6.109375 L 4 5.40625 L 4.488281 4.863281 L 5.242188 4.109375 L 5.835938 3.621094 L 6.59375 3.027344 L 7.566406 2.378906 L 8.703125 1.730469 L 9.730469 1.242188 L 11.082031 0.757812 L 12.214844 0.433594 L 13.621094 0.164062 L 14.488281 0.0546875 Z M 15.351562 0 "/>
<path style=" stroke:none;fill-rule:nonzero;fill:rgb(99.607843%,99.607843%,99.607843%);fill-opacity:1;" d="M 11.730469 4.539062 L 12.109375 4.539062 L 12.214844 4.648438 L 12.269531 14.269531 L 12.757812 13.835938 L 13.621094 13.296875 L 14.378906 12.917969 L 14.972656 12.703125 L 15.835938 12.488281 L 16.757812 12.378906 L 18.054688 12.378906 L 19.40625 12.648438 L 20.214844 12.917969 L 21.082031 13.351562 L 21.621094 13.675781 L 22.164062 14.109375 L 22.703125 14.59375 L 23.296875 15.296875 L 23.730469 16 L 24.109375 16.757812 L 24.433594 17.730469 L 24.59375 18.59375 L 24.59375 20.539062 L 24.378906 21.511719 L 24.054688 22.488281 L 23.566406 23.40625 L 23.136719 24 L 22.648438 24.539062 L 22.054688 25.136719 L 21.082031 25.785156 L 20.164062 26.214844 L 19.1875 26.539062 L 18.269531 26.703125 L 16.324219 26.703125 L 15.511719 26.539062 L 14.703125 26.324219 L 13.730469 25.890625 L 12.863281 25.351562 L 12.269531 24.863281 L 12.214844 26.269531 L 12.054688 26.433594 L 9.566406 26.433594 L 9.40625 26.269531 L 9.40625 5.945312 L 9.890625 5.621094 L 11.296875 4.8125 Z M 11.730469 4.539062 "/>
<path style=" stroke:none;fill-rule:nonzero;fill:rgb(0%,23.921569%,34.509804%);fill-opacity:1;" d="M 16.59375 15.082031 L 18.054688 15.082031 L 19.027344 15.351562 L 19.785156 15.730469 L 20.324219 16.164062 L 20.863281 16.703125 L 21.296875 17.40625 L 21.566406 18 L 21.785156 18.917969 L 21.785156 20.054688 L 21.621094 20.863281 L 21.296875 21.730469 L 20.917969 22.324219 L 20.324219 22.972656 L 19.675781 23.460938 L 18.972656 23.785156 L 18.488281 23.945312 L 17.835938 24.054688 L 16.703125 24.054688 L 15.945312 23.890625 L 15.136719 23.566406 L 14.488281 23.136719 L 14 22.703125 L 13.511719 22.054688 L 13.136719 21.296875 L 12.917969 20.59375 L 12.863281 20.214844 L 12.863281 18.757812 L 13.082031 17.945312 L 13.511719 17.082031 L 13.945312 16.488281 L 14.378906 16.054688 L 15.136719 15.566406 L 15.730469 15.296875 Z M 16.59375 15.082031 "/>
<path style=" stroke:none;fill-rule:nonzero;fill:rgb(98.823529%,48.235294%,39.607843%);fill-opacity:1;" d="M 24 8.972656 L 24.863281 8.972656 L 25.40625 9.1875 L 25.890625 9.621094 L 26.164062 10.164062 L 26.214844 10.324219 L 26.214844 11.027344 L 26 11.621094 L 25.511719 12.164062 L 24.972656 12.433594 L 24.757812 12.488281 L 24.164062 12.488281 L 23.566406 12.269531 L 23.027344 11.785156 L 22.757812 11.242188 L 22.703125 11.027344 L 22.703125 10.324219 L 22.917969 9.785156 L 23.351562 9.296875 Z M 24 8.972656 "/>
</g>
</svg>
