<?xml version="1.0" encoding="UTF-8"?>
<svg xmlns="http://www.w3.org/2000/svg" xmlns:xlink="http://www.w3.org/1999/xlink" width="32px" height="32px" viewBox="0 0 32 32" version="1.1">
<g id="surface1">
<path style=" stroke:none;fill-rule:nonzero;fill:rgb(0%,0%,0%);fill-opacity:1;" d="M 29.324219 13.175781 C 30.03125 11.058594 29.789062 8.738281 28.660156 6.8125 C 26.960938 3.855469 23.546875 2.335938 20.214844 3.050781 C 18.734375 1.382812 16.605469 0.429688 14.371094 0.445312 C 10.964844 0.4375 7.941406 2.628906 6.894531 5.871094 C 4.703125 6.320312 2.816406 7.691406 1.710938 9.632812 C 0 12.578125 0.390625 16.292969 2.675781 18.824219 C 1.96875 20.941406 2.210938 23.261719 3.339844 25.1875 C 5.039062 28.144531 8.449219 29.664062 11.785156 28.949219 C 13.265625 30.621094 15.394531 31.570312 17.628906 31.554688 C 21.039062 31.5625 24.0625 29.367188 25.109375 26.125 C 27.296875 25.675781 29.1875 24.308594 30.292969 22.367188 C 32 19.417969 31.609375 15.703125 29.324219 13.175781 Z M 17.632812 29.523438 C 16.269531 29.523438 14.945312 29.046875 13.898438 28.171875 C 13.945312 28.148438 14.03125 28.101562 14.082031 28.070312 L 20.277344 24.492188 C 20.59375 24.3125 20.789062 23.972656 20.785156 23.609375 L 20.785156 14.875 L 23.40625 16.386719 C 23.433594 16.402344 23.453125 16.429688 23.457031 16.460938 L 23.457031 23.691406 C 23.453125 26.910156 20.847656 29.515625 17.628906 29.523438 Z M 5.105469 24.171875 C 4.421875 22.992188 4.175781 21.609375 4.410156 20.265625 C 4.457031 20.292969 4.535156 20.34375 4.59375 20.375 L 10.789062 23.953125 C 11.101562 24.136719 11.492188 24.136719 11.804688 23.953125 L 19.367188 19.585938 L 19.367188 22.609375 C 19.371094 22.640625 19.355469 22.671875 19.332031 22.691406 L 13.070312 26.304688 C 10.28125 27.914062 6.714844 26.957031 5.105469 24.171875 Z M 3.476562 10.648438 C 4.15625 9.46875 5.230469 8.5625 6.511719 8.09375 C 6.511719 8.144531 6.507812 8.242188 6.507812 8.304688 L 6.507812 15.460938 C 6.503906 15.828125 6.699219 16.164062 7.015625 16.34375 L 14.578125 20.710938 L 11.960938 22.222656 C 11.933594 22.238281 11.902344 22.242188 11.871094 22.230469 L 5.609375 18.609375 C 2.824219 17 1.871094 13.4375 3.476562 10.648438 Z M 24.988281 15.65625 L 17.425781 11.289062 L 20.042969 9.777344 C 20.070312 9.761719 20.101562 9.757812 20.128906 9.769531 L 26.394531 13.386719 C 28.351562 14.515625 29.480469 16.679688 29.285156 18.933594 C 29.09375 21.1875 27.613281 23.125 25.492188 23.90625 L 25.492188 16.535156 C 25.496094 16.171875 25.300781 15.835938 24.988281 15.65625 Z M 27.59375 11.734375 C 27.546875 11.703125 27.464844 11.65625 27.410156 11.625 L 21.214844 8.046875 C 20.898438 7.863281 20.511719 7.863281 20.195312 8.046875 L 12.632812 12.414062 L 12.632812 9.386719 C 12.632812 9.355469 12.648438 9.328125 12.671875 9.308594 L 18.933594 5.695312 C 20.890625 4.566406 23.328125 4.671875 25.179688 5.964844 C 27.035156 7.257812 27.976562 9.503906 27.59375 11.734375 Z M 11.210938 17.121094 L 8.589844 15.609375 C 8.5625 15.597656 8.542969 15.570312 8.539062 15.539062 L 8.539062 8.308594 C 8.542969 6.046875 9.851562 3.988281 11.898438 3.03125 C 13.945312 2.070312 16.363281 2.382812 18.101562 3.828125 C 18.039062 3.863281 17.980469 3.898438 17.917969 3.933594 L 11.722656 7.511719 C 11.40625 7.691406 11.210938 8.027344 11.214844 8.390625 Z M 12.632812 14.054688 L 16 12.109375 L 19.371094 14.054688 L 19.371094 17.945312 L 16 19.890625 L 12.632812 17.945312 Z M 12.632812 14.054688 "/>
</g>
</svg>
